<svg width="56" height="240" viewBox="0 0 56 240" fill="none" xmlns="http://www.w3.org/2000/svg">
<path d="M54.3 163.1C46.6 162.9 39.0001 162.9 27.7001 162.9C16.4001 162.9 8.80005 162.9 1.10005 163.1L1.10005 149C8.60005 149.2 16.3001 149.2 27.6001 149.2C38.9001 149.2 46.4001 149.2 54.2001 149L54.2001 163.1L54.3 163.1Z" fill="#1A1A1A"/>
<path d="M42.4 179.1C42.6 172.4 42.6 165.8 42.6 156.1C42.6 146.3 42.6 139.7 42.4 133.1L55 133.1C54.8 139.6 54.8 146.2 54.8 156.1C54.8 165.9 54.8 172.4 55 179.2L42.4 179.2L42.4 179.1Z" fill="#1A1A1A"/>
<path d="M0.999969 179.1C1.19997 172.4 1.19998 165.8 1.19998 156.1C1.19998 146.3 1.19997 139.7 0.999974 133.1L13.6 133.1C13.4 139.6 13.4 146.2 13.4 156.1C13.4 165.9 13.4 172.4 13.6 179.2L0.999969 179.2L0.999969 179.1Z" fill="#1A1A1A"/>
<path d="M1.4001 214.5C1.4001 200.4 6.90011 192.3 21.2001 192.3C34.4001 192.3 41.2001 200.2 41.2001 214.7C41.2001 218.6 41.2001 221.1 41.1001 225.1C46.3001 225 50.9001 224.9 54.6001 224.6L54.6001 239.3C47.0001 239 39.4001 238.9 28.0001 238.9C16.7001 238.9 8.7001 239 1.4001 239.3L1.4001 214.5ZM20.9001 205.8C15.2001 205.8 13.1001 209.1 13.1001 216.7C13.1001 218.5 13.2001 222.4 13.2001 225.2C18.7001 225.2 24.0001 225.2 29.1001 225.2C29.1001 223.4 29.2001 220.4 29.2001 217.1C29.2001 208.7 27.0001 205.8 20.9001 205.8Z" fill="#1A1A1A"/>
<path d="M1.40013 64.7997C7.00013 64.8997 16.6001 64.9997 27.9001 64.9997C39.7001 64.9997 47.6001 64.9997 54.5001 64.8997L54.5001 79.3997C49.3001 81.9997 36.7001 90.2997 26.5001 97.0997C23.0001 99.1997 19.5001 101 15.9001 102.4C20.5001 102 24.8001 101.8 28.9001 101.8C41.9001 101.7 50.9001 101.7 54.5001 101.5L54.5001 114.2C47.5001 114.1 39.3001 114 27.9001 114C16.6001 114 8.10012 114 1.30012 114.2L1.30012 97.6997C5.10012 95.8997 18.4001 86.6997 28.6001 80.4997C31.4001 78.7997 34.8001 77.1997 38.0001 75.9997C33.8001 76.3997 29.6001 76.5997 25.7001 76.5997C16.6001 76.5997 5.90013 76.8997 1.20013 77.1997L1.20013 64.7997L1.40013 64.7997Z" fill="#1A1A1A"/>
<path d="M20.5 13.9998C20 13.8998 19.5001 13.8998 19.1001 13.8998C14.4001 13.8998 12 17.3998 12 24.2998C12 32.8998 15.8001 36.7998 27.6001 36.7998C38.9001 36.7998 44.0001 33.2998 44.0001 23.7998C44.0001 16.3998 41.1001 13.6999 34.3001 13.5999C34.4001 17.7999 34.4001 22.8999 34.5001 26.5999C33.6001 26.4999 31.7001 26.4998 30.8001 26.4998C28.5001 26.4998 26.7001 26.4999 25.2001 26.5999C25.3001 22.0999 25.3001 17.4998 25.3001 14.1998C25.3001 10.4998 25.4001 5.69983 25.2001 0.699826C43.8001 -0.500173 55.3001 2.99984 55.3001 24.3998C55.3 42.1998 43.8 50.6998 27.3 50.7998C10.7001 50.7998 0.30005 41.9998 0.300051 24.2998C0.300053 6.9998 9.40006 0.399837 17.6001 0.399838C18.4001 0.399838 19.4001 0.399815 20.3001 0.499814C20.2001 2.09981 20.2001 4.59985 20.2001 7.09985C20.3001 9.79985 20.3 12.3998 20.5 13.9998Z" fill="#1A1A1A"/>
</svg>
