<svg width="57" height="244" viewBox="0 0 57 244" fill="none" xmlns="http://www.w3.org/2000/svg">
<path d="M55.7001 25.3C55.7001 39.7 50.1001 48 35.6001 48C22.1001 48 15.2001 40 15.2001 25.1C15.2001 21.1 15.2001 18.5 15.3001 14.5C10.0001 14.6 5.30003 14.7 1.50003 15L1.50003 0.0999708C9.30003 0.399971 17.0001 0.499997 28.6001 0.499998C40.1001 0.499999 48.3001 0.399974 55.7001 0.0999756L55.7001 25.3ZM35.8001 34.1C41.6001 34.1 43.7001 30.8 43.7001 23C43.7001 21.2 43.6001 17.2 43.6001 14.3C38.0001 14.3 32.6001 14.3 27.4001 14.3C27.4001 16.2 27.3001 19.2 27.3001 22.5C27.3001 31.1 29.6001 34.1 35.8001 34.1Z" fill="#1A1A1A"/>
<path d="M0.500002 85.4997C0.500004 68.6997 10.9 58.2997 29.4 58.2997C48 58.2997 56.8001 69.3997 56.8001 85.4997C56.8 101.6 48 112.9 29.4 112.9C10.9 113 0.500001 102.3 0.500002 85.4997ZM28.9 98.5997C39.1 98.5997 44.2001 94.0997 44.2001 85.5997C44.2001 77.1997 39.2 72.4997 28.9 72.4997C18.7 72.4997 13.1001 77.0997 13.1001 85.5997C13.1001 94.0997 18.8 98.5997 28.9 98.5997Z" fill="#1A1A1A"/>
<path d="M55.7001 177.8C50.0001 177.7 40.2001 177.6 28.7001 177.6C16.7001 177.6 8.6001 177.6 1.6001 177.7L1.6001 162.9C6.9001 160.2 19.7001 151.8 30.2001 144.9C33.7001 142.7 37.3 140.9 41 139.5C36.3 139.9 31.9001 140.1 27.7001 140.1C14.4001 140.2 5.3001 140.2 1.6001 140.4L1.6001 127.4C8.7001 127.5 17.1001 127.6 28.7001 127.6C40.2001 127.6 48.8001 127.6 55.8001 127.4L55.8001 144.2C52.0001 146.1 38.4 155.4 27.9 161.7C25 163.4 21.6 165.1 18.3 166.3C22.6 165.9 26.8 165.7 30.8 165.7C40 165.7 51 165.4 55.8 165.1L55.8 177.8L55.7001 177.8Z" fill="#1A1A1A"/>
<path d="M36.2001 229.6C36.7001 229.7 37.2001 229.7 37.6001 229.7C42.4001 229.7 44.8001 226.1 44.8001 219.1C44.8001 210.4 40.9001 206.4 28.8001 206.4C17.3001 206.4 12.1001 209.9 12.1001 219.6C12.1001 227.2 15.1 229.8 22 230C21.9 225.7 21.9 220.5 21.8001 216.8C22.7001 216.9 24.6001 216.9 25.6001 216.9C27.9001 216.9 29.8001 216.9 31.3001 216.8C31.2001 221.3 31.2001 226 31.2001 229.4C31.2001 233.2 31.1 238.1 31.3 243.1C12.4 244.3 0.600098 240.7 0.6001 219C0.600101 200.8 12.4001 192.1 29.1001 192.1C46.0001 192.1 56.6001 201.1 56.6001 219.1C56.6001 236.7 47.3 243.5 38.9 243.5C38 243.5 37.1001 243.5 36.2001 243.4C36.3001 241.8 36.3 239.2 36.3 236.7C36.4001 233.9 36.4001 231.3 36.2001 229.6Z" fill="#1A1A1A"/>
</svg>
